<svg id="_x31__x2C_5" enable-background="new 0 0 36 36" height="512" viewBox="0 0 36 36" width="512" xmlns="http://www.w3.org/2000/svg"><path d="m27.417 3.914c-6.915.129-11.732-3.365-15.064-3.302s-10.296 2.109-10.009 17.44 9.744 17.404 13.41 17.336c17.163-.321 23.911-31.703 11.663-31.474z" fill="#efefef"/><g fill="#a4afc1"><path d="m13.333 4.572h1v2h-1z"/><path d="m13.333 10.322h1v2h-1z"/><path d="m9.833 7.822h2v1h-2z"/></g><path d="m27.25 26.25h-18.5c-1.105 0-2-.895-2-2v-3.5c0-1.105.895-2 2-2h18.5c1.105 0 2 .895 2 2v3.5c0 1.105-.895 2-2 2z" fill="#2fdf84"/><path d="m8.75 24.25v-3.5c0-1.105.895-2 2-2h-2c-1.105 0-2 .895-2 2v3.5c0 1.105.895 2 2 2h2c-1.105 0-2-.895-2-2z" fill="#00b871"/><path d="m22.75 13.75h1.5v4.75h-1.5z"/><path d="m25.416 12.574c-.402-.672-1.118-1.074-1.916-1.074s-1.514.402-1.916 1.074l-1.287-.769c.675-1.13 1.872-1.805 3.203-1.805s2.528.675 3.203 1.806z"/><path d="m27.662 10.505c-1.009-1.274-2.525-2.005-4.162-2.005s-3.153.731-4.162 2.005l-1.176-.931c1.294-1.636 3.239-2.574 5.338-2.574s4.044.938 5.338 2.575z"/><path d="m27.25 27h-18.5c-1.517 0-2.75-1.233-2.75-2.75v-3.5c0-1.517 1.233-2.75 2.75-2.75h18.5c1.517 0 2.75 1.233 2.75 2.75v3.5c0 1.517-1.233 2.75-2.75 2.75zm-18.5-7.5c-.689 0-1.25.561-1.25 1.25v3.5c0 .689.561 1.25 1.25 1.25h18.5c.689 0 1.25-.561 1.25-1.25v-3.5c0-.689-.561-1.25-1.25-1.25z"/><path d="m9 25.5h1.5v3.5h-1.5z"/><path d="m25.5 25.5h1.5v3.5h-1.5z"/><circle cx="25.5" cy="22.5" r="1.5"/><circle cx="10.5" cy="22.5" r="1.5"/><circle cx="15.5" cy="22.5" r="1.5"/></svg>